<svg width="24" height="24" viewBox="0 0 24 24" fill="none" xmlns="http://www.w3.org/2000/svg">
<path d="M12.0095 10.1699H11.9995C9.93951 10.1699 8.26953 11.8399 8.26953 13.8999V15.7699C8.26953 17.8299 9.93951 19.4999 11.9995 19.4999H12.0095C14.0696 19.4999 15.7395 17.8299 15.7395 15.7699V13.8999C15.7395 11.8399 14.0696 10.1699 12.0095 10.1699Z" stroke="#717171" stroke-width="1.5" stroke-miterlimit="10"/>
<path d="M10.1309 13.8999H13.8709" stroke="#717171" stroke-width="1.5" stroke-miterlimit="10"/>
<path d="M0.800781 15.77H8.27078" stroke="#717171" stroke-width="1.5" stroke-miterlimit="10"/>
<path d="M15.7305 15.77H23.2005" stroke="#717171" stroke-width="1.5" stroke-miterlimit="10"/>
<path d="M4.06961 17.6402C4.32918 17.6402 4.53961 17.4298 4.53961 17.1702C4.53961 16.9106 4.32918 16.7002 4.06961 16.7002C3.81004 16.7002 3.59961 16.9106 3.59961 17.1702C3.59961 17.4298 3.81004 17.6402 4.06961 17.6402Z" stroke="#717171" stroke-width="1.5" stroke-miterlimit="10"/>
<path d="M19.9309 17.6402C20.1905 17.6402 20.4009 17.4298 20.4009 17.1702C20.4009 16.9106 20.1905 16.7002 19.9309 16.7002C19.6714 16.7002 19.4609 16.9106 19.4609 17.1702C19.4609 17.4298 19.6714 17.6402 19.9309 17.6402Z" stroke="#717171" stroke-width="1.5" stroke-miterlimit="10"/>
<path d="M18.5309 11.1001H14.4609" stroke="#717171" stroke-width="1.5" stroke-miterlimit="10"/>
<path d="M9.5407 11.1001H5.4707" stroke="#717171" stroke-width="1.5" stroke-miterlimit="10"/>
<path d="M12 5.5V10.17" stroke="#717171" stroke-width="1.5" stroke-miterlimit="10"/>
</svg>
