<svg width="24" height="24" viewBox="0 0 24 24" fill="none" xmlns="http://www.w3.org/2000/svg">
<path d="M7.23031 19.7101C8.28518 19.7101 9.14031 18.855 9.14031 17.8001C9.14031 16.7453 8.28518 15.8901 7.23031 15.8901C6.17545 15.8901 5.32031 16.7453 5.32031 17.8001C5.32031 18.855 6.17545 19.7101 7.23031 19.7101Z" stroke="#717171" stroke-width="1.5" stroke-miterlimit="10"/>
<path d="M16.7694 19.7101C17.8242 19.7101 18.6794 18.855 18.6794 17.8001C18.6794 16.7453 17.8242 15.8901 16.7694 15.8901C15.7145 15.8901 14.8594 16.7453 14.8594 17.8001C14.8594 18.855 15.7145 19.7101 16.7694 19.7101Z" stroke="#717171" stroke-width="1.5" stroke-miterlimit="10"/>
<path d="M14.8606 17.7998H9.14062" stroke="#717171" stroke-width="1.5" stroke-miterlimit="10"/>
<path d="M5.32 17.7999H1.5V12.0699H3.41L4.6 9.06989C4.81579 8.54287 5.18452 8.09258 5.65864 7.77709C6.13276 7.4616 6.69053 7.29539 7.26 7.29989H13.49C13.9183 7.29853 14.3414 7.39408 14.7276 7.57937C15.1138 7.76467 15.453 8.03492 15.72 8.36989L18.72 12.0699H19.72C20.4785 12.0699 21.206 12.3712 21.7423 12.9076C22.2787 13.4439 22.58 14.1714 22.58 14.9299V17.7999H18.68" stroke="#717171" stroke-width="1.5" stroke-miterlimit="10"/>
<path d="M12.9609 10.1602V12.0702H18.6809" stroke="#717171" stroke-width="1.5" stroke-miterlimit="10"/>
</svg>
