<svg width="24" height="24" viewBox="0 0 24 24" fill="none" xmlns="http://www.w3.org/2000/svg">
<path d="M8.16992 1.5H15.8199V8.2C15.812 9.20884 15.4064 10.1738 14.6911 10.8853C13.9759 11.5968 13.0088 11.9974 11.9999 12C10.9893 12 10.0197 11.6006 9.30225 10.8888C8.58485 10.1771 8.17784 9.21057 8.16992 8.2V1.5Z" stroke="#717171" stroke-width="1.5" stroke-miterlimit="10"/>
<path d="M8.16992 5.33008H18.6999" stroke="#717171" stroke-width="1.5" stroke-miterlimit="10"/>
<path d="M4.34964 23.5V19.67C4.347 18.6637 4.54294 17.6668 4.92621 16.7363C5.30948 15.8059 5.87256 14.9602 6.58319 14.2477C7.29382 13.5352 8.13803 12.9699 9.06748 12.5842C9.99693 12.1985 10.9933 12 11.9996 12C14.0285 12 15.9743 12.806 17.409 14.2406C18.8437 15.6753 19.6496 17.6211 19.6496 19.65V23.5" stroke="#717171" stroke-width="1.5" stroke-miterlimit="10"/>
<path d="M9.13086 17.7598H11.0409" stroke="#717171" stroke-width="1.5" stroke-miterlimit="10"/>
<path d="M9.13086 21.5898H11.0409" stroke="#717171" stroke-width="1.5" stroke-miterlimit="10"/>
<path d="M8.92969 12.6602L12.9597 15.8502V23.5002" stroke="#717171" stroke-width="1.5" stroke-miterlimit="10"/>
</svg>
