<svg width="24" height="24" viewBox="0 0 24 24" fill="none" xmlns="http://www.w3.org/2000/svg">
<g clip-path="url(#clip0_96_513)">
<path d="M12 22.5C17.799 22.5 22.5 17.799 22.5 12C22.5 6.20101 17.799 1.5 12 1.5C6.20101 1.5 1.5 6.20101 1.5 12C1.5 17.799 6.20101 22.5 12 22.5Z" stroke="#717171" stroke-width="1.5" stroke-miterlimit="10"/>
<path d="M12.0008 12.9498C12.5255 12.9498 12.9508 12.5245 12.9508 11.9998C12.9508 11.4751 12.5255 11.0498 12.0008 11.0498C11.4761 11.0498 11.0508 11.4751 11.0508 11.9998C11.0508 12.5245 11.4761 12.9498 12.0008 12.9498Z" stroke="#717171" stroke-width="1.5" stroke-miterlimit="10"/>
<path d="M12 4.36035V12.0004L16.77 16.7704" stroke="#717171" stroke-width="1.5" stroke-miterlimit="10"/>
</g>
<defs>
<clipPath id="clip0_96_513">
<rect width="24" height="24" fill="white"/>
</clipPath>
</defs>
</svg>
