<svg width="24" height="24" viewBox="0 0 24 24" fill="none" xmlns="http://www.w3.org/2000/svg">
<rect width="24" height="24" rx="12" fill="#717171"/>
<path d="M19.5 18.9383C19.5 19.2458 19.245 19.5008 18.9375 19.5008H5.0625C4.755 19.5008 4.5 19.2458 4.5 18.9383C4.5 18.6308 4.755 18.3758 5.0625 18.3758H18.9375C19.245 18.3758 19.5 18.6308 19.5 18.9383ZM14.5433 6.39227L6.48825 14.4473C6.18075 14.7548 5.68575 14.7548 5.38575 14.4473H5.37825C4.87766 13.9441 4.59665 13.2633 4.59665 12.5535C4.59665 11.8438 4.87766 11.1629 5.37825 10.6598L10.7408 5.29727C11.7908 4.24727 13.4857 4.24727 14.5357 5.29727C14.8432 5.58977 14.8433 6.09227 14.5433 6.39227Z" fill="white"/>
<path d="M18.6161 9.36773L16.3286 7.08023C16.0211 6.77273 15.5261 6.77273 15.2261 7.08023L7.17105 15.1352C6.86355 15.4352 6.86355 15.9302 7.17105 16.2377L9.45855 18.5327C9.96306 19.0336 10.6451 19.3147 11.3561 19.3147C12.067 19.3147 12.749 19.0336 13.2536 18.5327L18.6086 13.1702C19.6736 12.1202 19.6736 10.4177 18.6161 9.36773ZM12.5711 16.1402L11.6636 17.0552C11.4761 17.2427 11.1686 17.2427 10.9736 17.0552C10.8834 16.963 10.8329 16.8392 10.8329 16.7102C10.8329 16.5813 10.8834 16.4574 10.9736 16.3652L11.8886 15.4502C12.0686 15.2702 12.3836 15.2702 12.5711 15.4502C12.7586 15.6377 12.7586 15.9602 12.5711 16.1402ZM15.5486 13.1627L13.7186 15.0002C13.5311 15.1802 13.2236 15.1802 13.0286 15.0002C12.9384 14.908 12.8879 14.7842 12.8879 14.6552C12.8879 14.5263 12.9384 14.4024 13.0286 14.3102L14.8661 12.4727C15.0461 12.2927 15.3611 12.2927 15.5486 12.4727C15.7361 12.6677 15.7361 12.9752 15.5486 13.1627Z" fill="white"/>
</svg>
