<svg width="24" height="24" viewBox="0 0 24 24" fill="none" xmlns="http://www.w3.org/2000/svg">
<g clip-path="url(#clip0_94_381)">
<path d="M19.6393 7.22C21.2188 7.22 22.4993 5.93953 22.4993 4.36C22.4993 2.78047 21.2188 1.5 19.6393 1.5C18.0598 1.5 16.7793 2.78047 16.7793 4.36C16.7793 5.93953 18.0598 7.22 19.6393 7.22Z" stroke="#717171" stroke-width="1.5" stroke-miterlimit="10"/>
<path d="M3.41016 8.18035V4.36035H16.7702" stroke="#717171" stroke-width="1.5" stroke-miterlimit="10"/>
<path d="M7.23047 8.18035V4.36035" stroke="#717171" stroke-width="1.5" stroke-miterlimit="10"/>
<path d="M13.91 22.5H1.5V12.96H13.91L17.73 17.73L13.91 22.5Z" stroke="#717171" stroke-width="1.5" stroke-miterlimit="10"/>
<path d="M17.7305 17.7303H19.1305C19.5739 17.7303 20.0129 17.6428 20.4224 17.4728C20.8319 17.3029 21.2039 17.0537 21.517 16.7397C21.83 16.4257 22.078 16.053 22.2468 15.643C22.4156 15.233 22.5018 14.7937 22.5005 14.3503C22.4952 13.4559 22.1356 12.6001 21.5005 11.9703L20.6105 11.0803C20.2944 10.7676 20.0432 10.3954 19.8716 9.98525C19.7 9.57506 19.6112 9.13496 19.6105 8.69031V5.32031" stroke="#717171" stroke-width="1.5" stroke-miterlimit="10"/>
</g>
<defs>
<clipPath id="clip0_94_381">
<rect width="24" height="24" fill="white"/>
</clipPath>
</defs>
</svg>
