<svg width="24" height="24" viewBox="0 0 24 24" fill="none" xmlns="http://www.w3.org/2000/svg">
<path d="M10.9992 0.5V6.76C11.0002 7.4711 10.8021 8.16829 10.4275 8.77269C10.0528 9.37709 9.51648 9.86458 8.87916 10.18C8.34678 10.4466 7.75957 10.5854 7.16416 10.5854C6.56875 10.5854 5.98154 10.4466 5.44916 10.18C4.82078 9.85722 4.29391 9.36693 3.92682 8.76335C3.55973 8.15978 3.36673 7.46644 3.36916 6.76V0.5" stroke="#717171" stroke-width="1.5" stroke-miterlimit="10"/>
<path d="M7.21094 0.5V23.5" stroke="#717171" stroke-width="1.5" stroke-miterlimit="10"/>
<path d="M14.8694 23.5V1.5C15.624 1.5 16.3712 1.6488 17.0683 1.93789C17.7654 2.22697 18.3986 2.65067 18.9317 3.18474C19.4648 3.71881 19.8874 4.35276 20.1753 5.05033C20.4632 5.74789 20.6107 6.49537 20.6094 7.25V13L14.8594 15.87" stroke="#717171" stroke-width="1.5" stroke-miterlimit="10"/>
</svg>
