<svg width="24" height="24" viewBox="0 0 24 24" fill="none" xmlns="http://www.w3.org/2000/svg">
<rect width="24" height="24" rx="12" fill="#717171"/>
<path d="M12.0008 15.0134C12.325 15.0134 12.636 14.8846 12.8653 14.6553C13.0945 14.426 13.2233 14.1151 13.2233 13.7909C13.2233 13.4666 13.0945 13.1557 12.8653 12.9264C12.636 12.6972 12.325 12.5684 12.0008 12.5684C11.6766 12.5684 11.3656 12.6972 11.1364 12.9264C10.9071 13.1557 10.7783 13.4666 10.7783 13.7909C10.7783 14.1151 10.9071 14.426 11.1364 14.6553C11.3656 14.8846 11.6766 15.0134 12.0008 15.0134Z" fill="white"/>
<path d="M16.71 9.1475V8.21C16.71 6.185 16.2225 3.5 12 3.5C7.7775 3.5 7.29 6.185 7.29 8.21V9.1475C5.19 9.41 4.5 10.475 4.5 13.0925V14.4875C4.5 17.5625 5.4375 18.5 8.5125 18.5H15.4875C18.5625 18.5 19.5 17.5625 19.5 14.4875V13.0925C19.5 10.475 18.81 9.41 16.71 9.1475ZM12 16.055C10.7475 16.055 9.735 15.035 9.735 13.79C9.735 12.5375 10.755 11.525 12 11.525C12.6001 11.527 13.1751 11.7662 13.5994 12.1906C14.0238 12.6149 14.263 13.1899 14.265 13.79C14.265 15.0425 13.2525 16.055 12 16.055ZM8.5125 9.08H8.34V8.21C8.34 6.0125 8.9625 4.55 12 4.55C15.0375 4.55 15.66 6.0125 15.66 8.21V9.0875H8.5125V9.08Z" fill="white"/>
</svg>
