<svg width="23" height="24" viewBox="0 0 23 24" fill="none" xmlns="http://www.w3.org/2000/svg">
<g clip-path="url(#clip0_298_4549)">
<path d="M22.9885 12.2244C22.9885 11.2412 22.9102 10.5236 22.7408 9.77954H11.7285V14.2175H18.1925C18.0622 15.3204 17.3585 16.9814 15.7946 18.0975L15.7727 18.246L19.2545 20.9962L19.4958 21.0208C21.7112 18.9346 22.9885 15.8652 22.9885 12.2244Z" fill="#4285F4"/>
<path d="M11.73 23.9176C14.8968 23.9176 17.5554 22.8545 19.4972 21.0209L15.796 18.0976C14.8056 18.8018 13.4763 19.2934 11.73 19.2934C8.62831 19.2934 5.99579 17.2074 5.05738 14.324L4.91982 14.3359L1.2993 17.1927L1.25195 17.3269C3.18072 21.2334 7.14256 23.9176 11.73 23.9176Z" fill="#34A853"/>
<path d="M5.0565 14.324C4.80889 13.58 4.66559 12.7826 4.66559 11.9589C4.66559 11.135 4.80889 10.3378 5.04347 9.59366L5.03691 9.43519L1.37102 6.53247L1.25107 6.59064C0.456137 8.21174 0 10.0322 0 11.9589C0 13.8855 0.456137 15.7059 1.25107 17.327L5.0565 14.324Z" fill="#FBBC05"/>
<path d="M11.73 4.62403C13.9324 4.62403 15.4181 5.59402 16.2652 6.40461L19.5754 3.10928C17.5424 1.1826 14.8968 0 11.73 0C7.14256 0 3.18072 2.68406 1.25195 6.59057L5.04435 9.59359C5.99579 6.7102 8.6283 4.62403 11.73 4.62403Z" fill="#EB4335"/>
</g>
<defs>
<clipPath id="clip0_298_4549">
<rect width="23" height="24" fill="white"/>
</clipPath>
</defs>
</svg>
