<svg width="16" height="16" viewBox="0 0 16 16" fill="none" xmlns="http://www.w3.org/2000/svg">
<path d="M8.00022 12.1831L5.23355 13.8498C5.11133 13.9276 4.98355 13.9609 4.85022 13.9498C4.71689 13.9387 4.60022 13.8943 4.50022 13.8165C4.40022 13.7387 4.32244 13.6414 4.26689 13.5245C4.21133 13.4076 4.20022 13.2771 4.23355 13.1331L4.96689 9.98314L2.51689 7.86647C2.40577 7.76647 2.33644 7.65247 2.30889 7.52447C2.28133 7.39647 2.28955 7.27158 2.33355 7.14981C2.378 7.02758 2.44466 6.92758 2.53355 6.8498C2.62244 6.77203 2.74466 6.72203 2.90022 6.69981L6.13355 6.41647L7.38355 3.4498C7.43911 3.31647 7.52533 3.21647 7.64222 3.1498C7.75911 3.08314 7.87844 3.0498 8.00022 3.0498C8.12244 3.0498 8.24178 3.08314 8.35822 3.1498C8.47466 3.21647 8.56089 3.31647 8.61689 3.4498L9.86689 6.41647L13.1002 6.69981C13.2558 6.72203 13.378 6.77203 13.4669 6.8498C13.5558 6.92758 13.6224 7.02758 13.6669 7.14981C13.7113 7.27203 13.7198 7.39714 13.6922 7.52514C13.6647 7.65314 13.5951 7.76692 13.4836 7.86647L11.0336 9.98314L11.7669 13.1331C11.8002 13.2776 11.7891 13.4082 11.7336 13.5251C11.678 13.642 11.6002 13.7391 11.5002 13.8165C11.4002 13.8943 11.2836 13.9387 11.1502 13.9498C11.0169 13.9609 10.8891 13.9276 10.7669 13.8498L8.00022 12.1831Z" fill="#581ADB"/>
</svg>
