<svg width="24" height="24" viewBox="0 0 24 24" fill="none" xmlns="http://www.w3.org/2000/svg">
<rect width="24" height="24" rx="12" fill="#717171"/>
<path d="M18.7275 4.75H16.5225C15.57 4.75 15 5.32 15 6.2725V8.4775C15 9.43 15.57 10 16.5225 10H18.7275C19.68 10 20.25 9.43 20.25 8.4775V6.2725C20.25 5.32 19.68 4.75 18.7275 4.75ZM19.2075 7.51C18.93 8.395 17.9625 8.875 17.625 8.875C17.2875 8.875 16.3275 8.41 16.0425 7.51C15.9975 7.375 15.975 7.225 15.975 7.0825C15.975 6.595 16.2225 6.0925 16.74 5.9275C17.0475 5.83 17.3775 5.8825 17.61 6.0775C17.85 5.89 18.18 5.83 18.495 5.9275C19.185 6.145 19.4025 6.9175 19.2075 7.51Z" fill="white"/>
<path d="M16.5225 11.125C15.8203 11.125 15.1469 10.8461 14.6504 10.3496C14.1539 9.85306 13.875 9.17966 13.875 8.4775V6.25C13.875 5.8375 13.5375 5.5 13.125 5.5H8.25C6.18 5.5 4.5 7.1725 4.5 9.235V14.4625C4.5 16.5325 6.18 18.2125 8.25 18.2125H9.375C9.585 18.2125 9.855 18.3475 9.975 18.5125L11.1 20.005C11.595 20.665 12.405 20.665 12.9 20.005L14.025 18.5125C14.1675 18.325 14.3925 18.2125 14.625 18.2125H15.7575C17.8275 18.2125 19.5 16.54 19.5 14.47V11.875C19.5 11.4625 19.1625 11.125 18.75 11.125H16.5225ZM9 13C8.58 13 8.25 12.6625 8.25 12.25C8.25 11.8375 8.58 11.5 9 11.5C9.4125 11.5 9.75 11.8375 9.75 12.25C9.75 12.6625 9.42 13 9 13ZM12 13C11.58 13 11.25 12.6625 11.25 12.25C11.25 11.8375 11.58 11.5 12 11.5C12.4125 11.5 12.75 11.8375 12.75 12.25C12.75 12.6625 12.42 13 12 13Z" fill="white"/>
</svg>
