<svg width="24" height="24" viewBox="0 0 24 24" fill="none" xmlns="http://www.w3.org/2000/svg">
<g clip-path="url(#clip0_96_517)">
<path d="M3.66002 10.1104H20.34C20.9129 10.1104 21.4623 10.3379 21.8674 10.743C22.2725 11.1481 22.5 11.6975 22.5 12.2704V16.8004H1.50002V12.2804C1.49871 11.9959 1.5536 11.7139 1.66156 11.4507C1.76952 11.1875 1.92842 10.9482 2.12913 10.7465C2.32983 10.5449 2.56839 10.3849 2.83111 10.2757C3.09383 10.1665 3.37552 10.1103 3.66002 10.1104Z" stroke="#717171" stroke-width="1.5" stroke-miterlimit="10"/>
<path d="M4.58924 1.51955H19.4092C19.9742 1.51955 20.5159 1.74396 20.9154 2.14342C21.3148 2.54287 21.5392 3.08464 21.5392 3.64955V10.1096H2.44924V3.65955C2.44792 3.37816 2.50237 3.09928 2.60944 2.83905C2.71652 2.57881 2.8741 2.34238 3.07308 2.14339C3.27206 1.94441 3.5085 1.78683 3.76874 1.67976C4.02897 1.57268 4.30784 1.51823 4.58924 1.51955Z" stroke="#717171" stroke-width="1.5" stroke-miterlimit="10"/>
<path d="M9.51047 6.2998H14.5105C15.1152 6.2998 15.6951 6.54002 16.1227 6.9676C16.5503 7.39518 16.7905 7.97511 16.7905 8.5798V10.1198H7.23047V8.5798C7.23047 7.97511 7.47068 7.39518 7.89827 6.9676C8.32585 6.54002 8.90578 6.2998 9.51047 6.2998Z" stroke="#717171" stroke-width="1.5" stroke-miterlimit="10"/>
<path d="M22.5 16.7998H1.5V20.6198H22.5V16.7998Z" stroke="#717171" stroke-width="1.5" stroke-miterlimit="10"/>
<path d="M2.44922 23.4804V20.6104" stroke="#717171" stroke-width="1.5" stroke-miterlimit="10"/>
<path d="M21.5508 23.4804V20.6104" stroke="#717171" stroke-width="1.5" stroke-miterlimit="10"/>
</g>
<defs>
<clipPath id="clip0_96_517">
<rect width="24" height="24" fill="white"/>
</clipPath>
</defs>
</svg>
