<svg width="24" height="24" viewBox="0 0 24 24" fill="none" xmlns="http://www.w3.org/2000/svg">
<path d="M16.4107 3.99975C18.3507 3.99975 19.9107 5.56975 19.9107 7.49975C19.9107 9.38975 18.4107 10.9297 16.5407 10.9997C16.4543 10.9897 16.3671 10.9897 16.2807 10.9997M18.3407 19.9997C19.0607 19.8497 19.7407 19.5597 20.3007 19.1297C21.8607 17.9597 21.8607 16.0297 20.3007 14.8597C19.7507 14.4397 19.0807 14.1597 18.3707 13.9997M9.1607 10.8697C9.0607 10.8597 8.9407 10.8597 8.8307 10.8697C7.68291 10.8308 6.59535 10.3466 5.79833 9.51971C5.00132 8.69283 4.55744 7.5882 4.5607 6.43975C4.5607 3.98975 6.5407 1.99975 9.0007 1.99975C10.1769 1.97853 11.3134 2.42544 12.1602 3.24216C13.0069 4.05888 13.4945 5.17851 13.5157 6.35475C13.5369 7.53098 13.09 8.66747 12.2733 9.5142C11.4566 10.3609 10.3369 10.8485 9.1607 10.8697ZM4.1607 14.5597C1.7407 16.1797 1.7407 18.8197 4.1607 20.4297C6.9107 22.2697 11.4207 22.2697 14.1707 20.4297C16.5907 18.8097 16.5907 16.1697 14.1707 14.5597C11.4307 12.7297 6.9207 12.7297 4.1607 14.5597Z" stroke="#717171" stroke-width="1.5" stroke-linecap="round" stroke-linejoin="round"/>
</svg>
