<svg width="12" height="11" viewBox="0 0 12 11" fill="none" xmlns="http://www.w3.org/2000/svg">
<path d="M6.00022 9.18314L3.23355 10.8498C3.11133 10.9276 2.98355 10.9609 2.85022 10.9498C2.71689 10.9387 2.60022 10.8943 2.50022 10.8165C2.40022 10.7387 2.32244 10.6414 2.26689 10.5245C2.21133 10.4076 2.20022 10.2771 2.23355 10.1331L2.96689 6.98314L0.516886 4.86647C0.405775 4.76647 0.336442 4.65247 0.308886 4.52447C0.28133 4.39647 0.289553 4.27158 0.333553 4.14981C0.377997 4.02758 0.444664 3.92758 0.533553 3.8498C0.622441 3.77203 0.744664 3.72203 0.900219 3.69981L4.13355 3.41647L5.38355 0.449805C5.43911 0.316472 5.52533 0.216471 5.64222 0.149805C5.75911 0.0831381 5.87844 0.0498047 6.00022 0.0498047C6.12244 0.0498047 6.24178 0.0831381 6.35822 0.149805C6.47466 0.216471 6.56089 0.316472 6.61689 0.449805L7.86689 3.41647L11.1002 3.69981C11.2558 3.72203 11.378 3.77203 11.4669 3.8498C11.5558 3.92758 11.6224 4.02758 11.6669 4.14981C11.7113 4.27203 11.7198 4.39714 11.6922 4.52514C11.6647 4.65314 11.5951 4.76692 11.4836 4.86647L9.03355 6.98314L9.76689 10.1331C9.80022 10.2776 9.78911 10.4082 9.73355 10.5251C9.678 10.642 9.60022 10.7391 9.50022 10.8165C9.40022 10.8943 9.28355 10.9387 9.15022 10.9498C9.01689 10.9609 8.88911 10.9276 8.76689 10.8498L6.00022 9.18314Z" fill="#581ADB"/>
</svg>
