<svg width="48" height="48" viewBox="0 0 48 48" fill="none" xmlns="http://www.w3.org/2000/svg">
<rect width="48" height="48" rx="24" fill="#581ADB"/>
<path d="M34 18.5H28M18 18.5H14M34 29.5H30M20 29.5H14M22 22C22.4596 22 22.9148 21.9095 23.3394 21.7336C23.764 21.5577 24.1499 21.2999 24.4749 20.9749C24.7999 20.6499 25.0577 20.264 25.2336 19.8394C25.4095 19.4148 25.5 18.9596 25.5 18.5C25.5 18.0404 25.4095 17.5852 25.2336 17.1606C25.0577 16.736 24.7999 16.3501 24.4749 16.0251C24.1499 15.7001 23.764 15.4423 23.3394 15.2664C22.9148 15.0905 22.4596 15 22 15C21.0717 15 20.1815 15.3687 19.5251 16.0251C18.8687 16.6815 18.5 17.5717 18.5 18.5C18.5 19.4283 18.8687 20.3185 19.5251 20.9749C20.1815 21.6313 21.0717 22 22 22ZM26 33C26.9283 33 27.8185 32.6313 28.4749 31.9749C29.1313 31.3185 29.5 30.4283 29.5 29.5C29.5 28.5717 29.1313 27.6815 28.4749 27.0251C27.8185 26.3687 26.9283 26 26 26C25.0717 26 24.1815 26.3687 23.5251 27.0251C22.8687 27.6815 22.5 28.5717 22.5 29.5C22.5 30.4283 22.8687 31.3185 23.5251 31.9749C24.1815 32.6313 25.0717 33 26 33Z" stroke="white" stroke-width="1.5" stroke-miterlimit="10" stroke-linecap="round" stroke-linejoin="round"/>
</svg>
