<svg width="24" height="24" viewBox="0 0 24 24" fill="none" xmlns="http://www.w3.org/2000/svg">
<g style="mix-blend-mode:multiply">
<rect y="-0.00488281" width="24" height="24" rx="12" fill="#717171" fill-opacity="0.8"/>
</g>
<path d="M11.9997 15.2982L9.09126 17.1328C8.96278 17.2184 8.82845 17.2551 8.68829 17.2428C8.54812 17.2306 8.42548 17.1817 8.32035 17.0961C8.21523 17.0105 8.13347 16.9033 8.07506 16.7747C8.01666 16.646 8.00498 16.5024 8.04002 16.3439L8.81093 12.8767L6.23539 10.5469C6.11859 10.4368 6.0457 10.3113 6.01673 10.1704C5.98777 10.0295 5.99641 9.89206 6.04266 9.75802C6.08939 9.62349 6.15947 9.51341 6.25291 9.4278C6.34636 9.34219 6.47484 9.28716 6.63837 9.2627L10.0374 8.95083L11.3514 5.6854C11.4098 5.53864 11.5005 5.42857 11.6234 5.35519C11.7462 5.28181 11.8717 5.24512 11.9997 5.24512C12.1282 5.24512 12.2536 5.28181 12.376 5.35519C12.4985 5.42857 12.5891 5.53864 12.648 5.6854L13.962 8.95083L17.361 9.2627C17.5246 9.28716 17.653 9.34219 17.7465 9.4278C17.8399 9.51341 17.91 9.62349 17.9567 9.75802C18.0035 9.89255 18.0123 10.0303 17.9834 10.1711C17.9544 10.312 17.8813 10.4373 17.764 10.5469L15.1885 12.8767L15.9594 16.3439C15.9944 16.5029 15.9827 16.6467 15.9243 16.7754C15.8659 16.9041 15.7842 17.0109 15.679 17.0961C15.5739 17.1817 15.4513 17.2306 15.3111 17.2428C15.1709 17.2551 15.0366 17.2184 14.9081 17.1328L11.9997 15.2982Z" fill="white"/>
</svg>
