<svg width="24" height="24" viewBox="0 0 24 24" fill="none" xmlns="http://www.w3.org/2000/svg">
<rect width="24" height="24" rx="12" fill="#717171"/>
<path d="M12.0001 17.0625C11.6926 17.0625 11.4376 16.8075 11.4376 16.5V15.75C11.4376 15.4425 11.6926 15.1875 12.0001 15.1875C12.3076 15.1875 12.5626 15.4425 12.5626 15.75V16.5C12.5626 16.8075 12.3076 17.0625 12.0001 17.0625ZM12.0001 20.0625C11.6926 20.0625 11.4376 19.8075 11.4376 19.5V18.75C11.4376 18.4425 11.6926 18.1875 12.0001 18.1875C12.3076 18.1875 12.5626 18.4425 12.5626 18.75V19.5C12.5626 19.8075 12.3076 20.0625 12.0001 20.0625ZM4.49861 20.061C4.45361 20.061 4.40861 20.0535 4.36361 20.046C4.06361 19.971 3.87611 19.6635 3.95111 19.3635L4.70111 16.3635C4.71884 16.2916 4.75055 16.2239 4.79445 16.1643C4.83834 16.1046 4.89355 16.0542 4.95693 16.0159C5.0203 15.9776 5.0906 15.9521 5.16381 15.941C5.23702 15.9299 5.31171 15.9333 5.38361 15.951C5.45551 15.9687 5.52321 16.0004 5.58285 16.0443C5.64249 16.0882 5.6929 16.1434 5.73121 16.2068C5.76951 16.2702 5.79496 16.3405 5.80609 16.4137C5.81723 16.4869 5.81384 16.5616 5.79611 16.6335L5.04611 19.6335C4.97861 19.8885 4.75361 20.061 4.49861 20.061ZM19.3149 19.8773C19.0599 19.8773 18.8349 19.7048 18.7674 19.4498L18.0174 16.4498C17.9424 16.1498 18.1224 15.8423 18.4299 15.7673C18.7299 15.6923 19.0374 15.8722 19.1124 16.1798L19.8624 19.1798C19.9374 19.4797 19.7574 19.7873 19.4499 19.8622C19.4049 19.8697 19.3599 19.8773 19.3149 19.8773ZM17.3536 6.975C17.3536 7.2 17.1661 7.38 16.9486 7.38H7.14611C6.92111 7.38 6.74111 7.1925 6.74111 6.975C6.74111 6.75 6.92861 6.57 7.14611 6.57H7.70111L7.91111 5.5875C8.10611 4.6275 8.51111 3.75 10.1311 3.75H13.9486C15.5686 3.75 15.9811 4.6275 16.1761 5.58L16.3861 6.5625H16.9411C17.1661 6.5625 17.3536 6.75 17.3536 6.975ZM17.5861 10.05C17.5036 9.15 17.2636 8.1975 15.5161 8.1975H8.57111C6.82361 8.1975 6.59111 9.1575 6.50111 10.05L6.19361 13.365C6.15611 13.7775 6.29111 14.19 6.57611 14.505C6.86861 14.82 7.27361 15 7.70861 15H8.72861C9.61361 15 9.77861 14.4975 9.89111 14.16L10.0036 13.83C10.1311 13.455 10.1611 13.365 10.6486 13.365H13.4386C13.9261 13.365 13.9411 13.4175 14.0836 13.83L14.1961 14.16C14.3011 14.4975 14.4736 15 15.3511 15H16.3711C16.7986 15 17.2111 14.82 17.5036 14.505C17.7886 14.1975 17.9236 13.7775 17.8861 13.365L17.5861 10.05ZM10.4086 11.19H8.78111C8.55611 11.19 8.37611 11.0025 8.37611 10.785C8.37611 10.5675 8.56361 10.38 8.78111 10.38H10.4161C10.6411 10.38 10.8211 10.5675 10.8211 10.785C10.8211 11.0025 10.6336 11.19 10.4086 11.19ZM15.3061 11.19H13.6711C13.4461 11.19 13.2661 11.0025 13.2661 10.785C13.2661 10.5675 13.4536 10.38 13.6711 10.38H15.3061C15.5311 10.38 15.7111 10.5675 15.7111 10.785C15.7111 11.0025 15.5311 11.19 15.3061 11.19Z" fill="white"/>
</svg>
