<svg width="24" height="24" viewBox="0 0 24 24" fill="none" xmlns="http://www.w3.org/2000/svg">
<g clip-path="url(#clip0_100_983)">
<path d="M0.779297 15.0599L5.2393 10.5999C5.40198 10.4371 5.59535 10.3082 5.8082 10.2206C6.02105 10.1331 6.24915 10.0886 6.4793 10.0899C6.94309 10.0928 7.38765 10.2756 7.7193 10.5999C8.04176 10.9327 8.2243 11.3765 8.2293 11.8399C8.23074 12.0715 8.18643 12.3012 8.09892 12.5157C8.0114 12.7302 7.88239 12.9253 7.7193 13.0899L6.5793 14.8599H14.1493C14.3379 14.8599 14.5247 14.8972 14.6989 14.9697C14.873 15.0422 15.0311 15.1484 15.164 15.2822C15.2969 15.4161 15.4021 15.5749 15.4733 15.7496C15.5446 15.9242 15.5806 16.1112 15.5793 16.2999C15.5793 16.6791 15.4286 17.0429 15.1605 17.311C14.8923 17.5792 14.5286 17.7299 14.1493 17.7299H9.8893L9.2593 20.9999C9.20371 21.3948 9.00696 21.7562 8.70546 22.0173C8.40396 22.2783 8.01811 22.4213 7.6193 22.4199C5.29725 22.4042 3.01055 21.8496 0.939297 20.7999L0.779297 20.7199" stroke="#717171" stroke-width="1.5" stroke-miterlimit="10"/>
<path d="M9.8893 17.73L9.2593 21C9.21761 21.4077 9.02747 21.7858 8.72506 22.0624C8.42265 22.339 8.02909 22.4947 7.6193 22.5C5.29516 22.5016 3.00449 21.9461 0.939297 20.88L0.779297 20.8" stroke="#717171" stroke-width="1.5" stroke-miterlimit="10"/>
<path d="M23.22 8.93989L18.76 13.3999C18.5973 13.5627 18.4039 13.6916 18.1911 13.7791C17.9782 13.8667 17.7501 13.9111 17.52 13.9099C17.0562 13.907 16.6116 13.7241 16.28 13.3999C15.9575 13.0671 15.775 12.6233 15.77 12.1599C15.7685 11.9282 15.8128 11.6986 15.9003 11.484C15.9879 11.2695 16.1169 11.0744 16.28 10.9099L17.42 9.13989H9.84996C9.66132 9.1399 9.47455 9.10258 9.3004 9.03009C9.12625 8.9576 8.96816 8.85138 8.83524 8.71753C8.70232 8.58368 8.5972 8.42485 8.52593 8.2502C8.45465 8.07555 8.41864 7.88852 8.41996 7.69989C8.41996 7.32063 8.57062 6.95691 8.83879 6.68873C9.10697 6.42055 9.4707 6.26989 9.84996 6.26989H14.11L14.74 3.04989C14.7955 2.65497 14.9923 2.29355 15.2938 2.03249C15.5953 1.77144 15.9811 1.62842 16.38 1.62989C18.698 1.63004 20.9845 2.16743 23.06 3.19989L23.22 3.27989" stroke="#717171" stroke-width="1.5" stroke-miterlimit="10"/>
<path d="M14.1094 6.27L14.7394 3C14.7811 2.5923 14.9712 2.21417 15.2736 1.93757C15.576 1.66098 15.9696 1.50524 16.3794 1.5C18.7035 1.49836 20.9942 2.05388 23.0594 3.12L23.2194 3.2" stroke="#717171" stroke-width="1.5" stroke-miterlimit="10"/>
</g>
<defs>
<clipPath id="clip0_100_983">
<rect width="24" height="24" fill="white"/>
</clipPath>
</defs>
</svg>
