<svg width="24" height="24" viewBox="0 0 24 24" fill="none" xmlns="http://www.w3.org/2000/svg">
<path d="M1.5 23.52C1.50264 22.2557 2.00604 21.044 2.90002 20.15C3.794 19.256 5.00573 18.7526 6.27 18.75C7.536 18.75 8.7503 19.2522 9.64644 20.1465C10.5426 21.0408 11.0474 22.254 11.05 23.52" stroke="#717171" stroke-width="1.5" stroke-miterlimit="10"/>
<path d="M6.27016 16.8401C7.84969 16.8401 9.13016 15.5597 9.13016 13.9801C9.13016 12.4006 7.84969 11.1201 6.27016 11.1201C4.69062 11.1201 3.41016 12.4006 3.41016 13.9801C3.41016 15.5597 4.69062 16.8401 6.27016 16.8401Z" stroke="#717171" stroke-width="1.5" stroke-miterlimit="10"/>
<path d="M13 23.52C13.0026 22.254 13.5074 21.0408 14.4036 20.1465C15.2997 19.2522 16.514 18.75 17.78 18.75C19.0443 18.7526 20.256 19.256 21.15 20.15C22.044 21.044 22.5474 22.2557 22.55 23.52" stroke="#717171" stroke-width="1.5" stroke-miterlimit="10"/>
<path d="M17.7291 16.8401C19.3087 16.8401 20.5891 15.5597 20.5891 13.9801C20.5891 12.4006 19.3087 11.1201 17.7291 11.1201C16.1496 11.1201 14.8691 12.4006 14.8691 13.9801C14.8691 15.5597 16.1496 16.8401 17.7291 16.8401Z" stroke="#717171" stroke-width="1.5" stroke-miterlimit="10"/>
<path d="M12.0002 3.48047L12.6202 4.73047L14.0102 4.94047L13.0002 5.91047L13.2402 7.29047L12.0002 6.64047L10.7602 7.29047L11.0002 5.91047L9.99023 4.94047L11.3802 4.73047L12.0002 3.48047Z" stroke="#717171" stroke-width="1.5" stroke-miterlimit="10"/>
</svg>
