<svg width="24" height="24" viewBox="0 0 24 24" fill="none" xmlns="http://www.w3.org/2000/svg">
<path d="M6.27016 1.5H17.7302C18.4887 1.5 19.2161 1.80132 19.7525 2.33767C20.2888 2.87403 20.5902 3.60148 20.5902 4.36V22.5H3.41016V4.36C3.41016 3.60148 3.71148 2.87403 4.24783 2.33767C4.78418 1.80132 5.51164 1.5 6.27016 1.5Z" stroke="#717171" stroke-width="1.5" stroke-miterlimit="10"/>
<path d="M12.0005 18.6796C14.6349 18.6796 16.7705 16.544 16.7705 13.9096C16.7705 11.2752 14.6349 9.13965 12.0005 9.13965C9.36607 9.13965 7.23047 11.2752 7.23047 13.9096C7.23047 16.544 9.36607 18.6796 12.0005 18.6796Z" stroke="#717171" stroke-width="1.5" stroke-miterlimit="10"/>
<path d="M6.26953 5.32031H11.0495" stroke="#717171" stroke-width="1.5" stroke-miterlimit="10"/>
<path d="M15.8203 5.32031H17.7303" stroke="#717171" stroke-width="1.5" stroke-miterlimit="10"/>
<path d="M12.9492 5.32031H14.8592" stroke="#717171" stroke-width="1.5" stroke-miterlimit="10"/>
<path d="M7.23047 13.9103C12.0005 11.0503 12.9505 15.8203 16.7705 13.9103" stroke="#717171" stroke-width="1.5" stroke-miterlimit="10"/>
</svg>
