<svg width="24" height="24" viewBox="0 0 24 24" fill="none" xmlns="http://www.w3.org/2000/svg">
<path d="M20 7.5998H15.2M7.2 7.5998H4M20 16.3998H16.8M8.8 16.3998H4M10.4 10.3998C10.7677 10.3998 11.1318 10.3274 11.4715 10.1867C11.8112 10.046 12.1199 9.83971 12.3799 9.5797C12.6399 9.3197 12.8461 9.01103 12.9869 8.67132C13.1276 8.33161 13.2 7.96751 13.2 7.5998C13.2 7.2321 13.1276 6.868 12.9869 6.52829C12.8461 6.18858 12.6399 5.87991 12.3799 5.61991C12.1199 5.3599 11.8112 5.15366 11.4715 5.01294C11.1318 4.87223 10.7677 4.7998 10.4 4.7998C9.65739 4.7998 8.9452 5.0948 8.4201 5.61991C7.895 6.14501 7.6 6.8572 7.6 7.5998C7.6 8.34241 7.895 9.0546 8.4201 9.5797C8.9452 10.1048 9.65739 10.3998 10.4 10.3998ZM13.6 19.1998C14.3426 19.1998 15.0548 18.9048 15.5799 18.3797C16.105 17.8546 16.4 17.1424 16.4 16.3998C16.4 15.6572 16.105 14.945 15.5799 14.4199C15.0548 13.8948 14.3426 13.5998 13.6 13.5998C12.8574 13.5998 12.1452 13.8948 11.6201 14.4199C11.095 14.945 10.8 15.6572 10.8 16.3998C10.8 17.1424 11.095 17.8546 11.6201 18.3797C12.1452 18.9048 12.8574 19.1998 13.6 19.1998Z" stroke="#717171" stroke-width="1.5" stroke-miterlimit="10" stroke-linecap="round" stroke-linejoin="round"/>
</svg>
