<svg width="22" height="22" viewBox="0 0 22 22" fill="none" xmlns="http://www.w3.org/2000/svg">
<path d="M10.002 18.998C12.3889 18.998 14.6781 18.0498 16.3659 16.362C18.0537 14.6742 19.002 12.385 19.002 9.99805C19.002 7.6111 18.0537 5.32191 16.3659 3.63409C14.6781 1.94626 12.3889 0.998047 10.002 0.998047C7.615 0.998047 5.32582 1.94626 3.63799 3.63409C1.95016 5.32191 1.00195 7.6111 1.00195 9.99805C1.00195 12.385 1.95016 14.6742 3.63799 16.362C5.32582 18.0498 7.615 18.998 10.002 18.998ZM17.932 19.688C18.462 21.288 19.672 21.448 20.602 20.048C21.452 18.768 20.892 17.718 19.352 17.718C18.212 17.708 17.572 18.598 17.932 19.688Z" stroke="white" stroke-width="1.5" stroke-linecap="round" stroke-linejoin="round"/>
</svg>
