<svg width="22" height="22" viewBox="0 0 22 22" fill="none" xmlns="http://www.w3.org/2000/svg">
<path d="M15.4107 3.00072C17.3507 3.00072 18.9107 4.57072 18.9107 6.50072C18.9107 8.39072 17.4107 9.93072 15.5407 10.0007C15.4543 9.99072 15.3671 9.99072 15.2807 10.0007M17.3407 19.0007C18.0607 18.8507 18.7407 18.5607 19.3007 18.1307C20.8607 16.9607 20.8607 15.0307 19.3007 13.8607C18.7507 13.4407 18.0807 13.1607 17.3707 13.0007M8.1607 9.87072C8.0607 9.86072 7.9407 9.86072 7.8307 9.87072C6.68291 9.83175 5.59535 9.34756 4.79833 8.52068C4.00132 7.6938 3.55744 6.58918 3.5607 5.44072C3.5607 2.99072 5.5407 1.00072 8.0007 1.00072C9.17694 0.979505 10.3134 1.42641 11.1602 2.24314C12.0069 3.05986 12.4945 4.17949 12.5157 5.35572C12.5369 6.53196 12.09 7.66845 11.2733 8.51517C10.4566 9.3619 9.33694 9.8495 8.1607 9.87072ZM3.1607 13.5607C0.740703 15.1807 0.740703 17.8207 3.1607 19.4307C5.9107 21.2707 10.4207 21.2707 13.1707 19.4307C15.5907 17.8107 15.5907 15.1707 13.1707 13.5607C10.4307 11.7307 5.9207 11.7307 3.1607 13.5607Z" stroke="#222222" stroke-width="1.5" stroke-linecap="round" stroke-linejoin="round"/>
</svg>
