<svg width="20" height="22" viewBox="0 0 20 22" fill="none" xmlns="http://www.w3.org/2000/svg">
<path d="M7.03023 20.6898L9.36023 18.7298C9.71023 18.4298 10.2902 18.4298 10.6402 18.7298L12.9702 20.6898C13.5102 20.9598 14.1702 20.6898 14.3702 20.1098L14.8102 18.7798C14.9202 18.4598 14.8102 17.9898 14.5702 17.7498L12.3002 15.4698C12.1302 15.3098 12.0002 14.9898 12.0002 14.7598V11.9098C12.0002 11.4898 12.3102 11.2898 12.7002 11.4498L17.6102 13.5698C18.3802 13.8998 19.0102 13.4898 19.0102 12.6498V11.3598C19.0102 10.6898 18.5102 9.91977 17.8902 9.65977L12.3002 7.24977C12.2146 7.20578 12.1418 7.14022 12.0892 7.05956C12.0366 6.97889 12.0059 6.8859 12.0002 6.78977V3.78977C12.0002 2.84977 11.3102 1.73977 10.4702 1.30977C10.1702 1.15977 9.82024 1.15977 9.52024 1.30977C8.68024 1.73977 7.99023 2.85977 7.99023 3.79977V6.79977C7.99023 6.97977 7.85023 7.18977 7.69023 7.25977L2.11023 9.66977C1.49023 9.91977 0.990234 10.6898 0.990234 11.3598V12.6498C0.990234 13.4898 1.62023 13.8998 2.39023 13.5698L7.30023 11.4498C7.68023 11.2798 8.00023 11.4898 8.00023 11.9098V14.7598C8.00023 14.9898 7.87023 15.3098 7.71023 15.4698L5.44023 17.7498C5.20023 17.9898 5.09023 18.4498 5.20023 18.7798L5.64023 20.1098C5.82023 20.6898 6.48023 20.9698 7.03023 20.6898Z" stroke="#222222" stroke-width="1.5" stroke-linecap="round" stroke-linejoin="round"/>
</svg>
