<svg width="22" height="20" viewBox="0 0 22 20" fill="none" xmlns="http://www.w3.org/2000/svg">
<path d="M1 13.2905V3.71045C1 2.38045 1.77 2.06045 2.71 3.00045L5.3 5.59045C5.69 5.98045 6.33 5.98045 6.71 5.59045L10.29 2.00045C10.3825 1.90775 10.4924 1.8342 10.6134 1.78402C10.7343 1.73384 10.864 1.70801 10.995 1.70801C11.126 1.70801 11.2557 1.73384 11.3766 1.78402C11.4976 1.8342 11.6075 1.90775 11.7 2.00045L15.29 5.59045C15.68 5.98045 16.32 5.98045 16.7 5.59045L19.29 3.00045C20.23 2.06045 21 2.38045 21 3.71045V13.3005C21 16.3005 19 18.3005 16 18.3005H6C3.24 18.2905 1 16.0505 1 13.2905Z" stroke="#717171" stroke-width="1.5" stroke-linecap="round" stroke-linejoin="round"/>
</svg>
