<svg width="24" height="24" viewBox="0 0 24 24" fill="none" xmlns="http://www.w3.org/2000/svg">
<rect width="24" height="24" rx="12" fill="#717171"/>
<path d="M12.0007 4.5C10.0357 4.5 8.4382 6.0975 8.4382 8.0625C8.4382 9.99 9.9457 11.55 11.9107 11.6175C11.9707 11.61 12.0307 11.61 12.0757 11.6175H12.1282C13.0502 11.5867 13.9241 11.1986 14.5652 10.5352C15.2062 9.87175 15.5641 8.98503 15.5632 8.0625C15.5632 6.0975 13.9657 4.5 12.0007 4.5ZM15.8107 13.6117C13.7182 12.2168 10.3057 12.2168 8.1982 13.6117C7.2457 14.2493 6.7207 15.1117 6.7207 16.0343C6.7207 16.9567 7.2457 17.8118 8.1907 18.4418C9.2407 19.1468 10.6207 19.4993 12.0007 19.4993C13.3807 19.4993 14.7607 19.1468 15.8107 18.4418C16.7557 17.8043 17.2807 16.9492 17.2807 16.0192C17.2732 15.0967 16.7557 14.2417 15.8107 13.6117Z" fill="white"/>
</svg>
